<?xml version="1.0" standalone="no"?>
<!DOCTYPE svg PUBLIC "-//W3C//DTD SVG 20010904//EN"
 "http://www.w3.org/TR/2001/REC-SVG-20010904/DTD/svg10.dtd">
<svg version="1.0" xmlns="http://www.w3.org/2000/svg"
 width="210.000000pt" height="210.000000pt" viewBox="0 0 210.000000 210.000000"
 preserveAspectRatio="xMidYMid meet">
<metadata>
Created by potrace 1.11, written by Peter Selinger 2001-2013
</metadata>
<g transform="translate(0.000000,210.000000) scale(0.100000,-0.100000)"
fill="#000000" stroke="none">
<path d="M960 2019 c-47 -16 -101 -35 -120 -43 -19 -8 -114 -42 -210 -76 -96
-33 -184 -65 -195 -70 -11 -5 -81 -30 -155 -56 -74 -25 -141 -49 -148 -52 -10
-3 -11 -18 -7 -56 7 -58 10 -85 20 -176 4 -36 8 -76 10 -90 2 -14 6 -50 10
-80 3 -30 10 -89 15 -130 6 -41 12 -100 15 -130 3 -30 7 -71 10 -90 3 -19 7
-57 10 -85 3 -27 7 -63 9 -80 2 -16 7 -59 11 -95 3 -36 8 -76 10 -90 2 -14 7
-50 10 -80 3 -30 7 -55 8 -55 8 -4 369 -203 397 -218 19 -11 115 -65 213 -119
l179 -99 266 147 c147 81 283 156 302 167 19 11 76 42 125 69 50 28 91 51 92
52 3 3 11 59 18 126 4 36 8 76 10 90 3 14 7 50 10 80 2 30 7 75 11 100 8 65
12 98 19 165 4 33 8 71 10 84 3 13 7 58 11 100 3 42 7 78 9 81 2 3 6 39 10 80
3 41 8 82 10 90 6 23 19 161 20 203 l0 39 -459 164 c-253 90 -462 164 -465
163 -3 0 -44 -14 -91 -30z"/>
</g>
</svg>
